# xmcd
#
# Track frame offsets:
#	150
#	15084
#	32953
#	59261
#	77874
#	89974
#	105929
#	125893
#	150482
#	165871
#
# Disc length: 2361 seconds
#
# Revision: 1
# Processed by: cddbd v1.5.2PL0 Copyright (c) Steve Scherf et al.
# Submitted via: audiograbber 1.83.01
#
DISCID=7109370a
DTITLE=Oppedal Bluesband - Kom hit
DYEAR=2005
DGENRE=Blues
TTITLE0=Kom hit
TTITLE1=Just as long
TTITLE2=Black night
TTITLE3=Evil
TTITLE4=Man of many words
TTITLE5=Gold tailed bird
TTITLE6=Alt for lite drikke
TTITLE7=Sikt høgt, ligg lågt
TTITLE8=Money, that's what i want
TTITLE9=Kom hit II
EXTD=
EXTT0=
EXTT1=
EXTT2=
EXTT3=
EXTT4=
EXTT5=
EXTT6=
EXTT7=
EXTT8=
EXTT9=
PLAYORDER=
